<?xml version="1.0" standalone="no"?>
<!DOCTYPE svg PUBLIC "-//W3C//DTD SVG 20010904//EN"
 "http://www.w3.org/TR/2001/REC-SVG-20010904/DTD/svg10.dtd">
<svg version="1.0" xmlns="http://www.w3.org/2000/svg"
 width="512.000000pt" height="512.000000pt" viewBox="0 0 512.000000 512.000000"
 preserveAspectRatio="xMidYMid meet">
<metadata>
Created by potrace 1.16, written by Peter Selinger 2001-2019
</metadata>
<g transform="translate(0.000000,512.000000) scale(0.100000,-0.100000)"
fill="#000000" stroke="none">
<path d="M2386 4665 c-8 -9 -18 -38 -22 -65 -6 -43 -10 -50 -29 -50 -30 0
-101 -53 -120 -89 -8 -17 -15 -46 -15 -66 0 -25 -4 -35 -15 -35 -9 0 -27 -11
-40 -25 -21 -20 -25 -34 -25 -85 0 -55 -2 -61 -24 -70 -15 -5 -37 -5 -58 1
-81 23 -171 -1 -198 -52 -6 -10 -16 -19 -23 -19 -17 0 -11 -121 8 -170 7 -20
16 -57 20 -83 4 -26 11 -45 15 -42 8 5 -7 101 -21 126 -4 9 -9 44 -11 78 -2
57 0 63 32 96 47 48 96 61 163 41 68 -20 97 -41 97 -72 0 -32 -14 -30 -39 5
-40 55 -129 65 -178 19 -27 -25 -30 -73 -7 -106 13 -19 24 -22 80 -22 85 0
104 -18 104 -95 l0 -55 -34 0 c-62 0 -96 -11 -96 -32 0 -16 3 -17 21 -8 12 7
40 9 68 5 44 -6 49 -10 58 -40 16 -51 -2 -77 -62 -93 -63 -16 -118 -3 -142 35
-9 14 -32 32 -50 40 -30 12 -38 12 -70 -4 -39 -18 -208 -179 -238 -226 -33
-52 -9 -37 38 22 25 33 80 89 123 125 96 82 119 85 181 24 40 -39 42 -43 26
-60 -22 -24 -35 -23 -63 7 -31 33 -71 32 -110 -2 -45 -40 -51 -98 -16 -140 14
-17 26 -34 26 -38 0 -15 -94 -125 -108 -125 -13 0 -202 110 -244 142 -16 12
-14 19 33 87 49 72 61 111 17 56 -92 -114 -184 -279 -233 -417 -15 -43 -32
-78 -37 -78 -31 0 99 296 187 424 28 41 45 76 42 86 -7 26 38 75 165 185 75
65 115 92 122 85 5 -5 8 -11 5 -13 -39 -29 -174 -145 -204 -176 -30 -32 -36
-44 -27 -53 9 -9 25 2 70 48 31 32 86 83 120 113 34 30 62 60 62 68 0 7 -22
44 -50 82 -27 38 -50 73 -50 78 0 11 112 78 158 95 31 12 44 28 21 28 -16 0
-177 -88 -185 -101 -3 -6 -52 37 -107 94 -79 81 -111 106 -143 115 -28 8 -146
12 -355 12 -354 0 -364 -2 -428 -75 -62 -71 -61 -63 -61 -535 l0 -431 -29 -27
c-73 -68 -79 -152 -17 -209 62 -57 156 -40 192 34 17 37 18 38 25 13 4 -14 7
-265 8 -559 1 -388 4 -545 13 -575 10 -32 40 -69 135 -164 115 -116 123 -126
123 -163 l0 -39 -80 0 -79 0 -56 -46 c-53 -43 -57 -45 -71 -27 -20 27 -17 70
5 83 11 5 36 10 55 10 44 0 65 29 40 55 -20 20 -36 15 -51 -15 -6 -13 -25 -29
-42 -36 -41 -17 -49 -53 -22 -99 15 -26 21 -53 21 -99 l0 -62 60 -50 c33 -27
60 -57 60 -66 0 -10 10 -28 21 -39 18 -18 29 -20 70 -15 37 5 55 3 71 -9 18
-12 53 -15 168 -15 l146 0 74 75 c86 87 85 101 -1 21 l-59 -55 -143 -3 c-161
-3 -203 6 -213 46 -10 43 3 72 56 116 l50 42 0 136 c0 96 3 133 11 125 6 -6 9
-55 7 -132 -2 -66 0 -121 5 -121 4 0 7 57 7 127 l0 127 -72 70 c-40 39 -112
107 -160 151 l-88 80 0 538 c0 515 1 537 18 537 18 0 19 -18 26 -322 17 -728
18 -743 45 -772 34 -36 39 -24 6 15 l-27 33 4 525 c3 505 4 526 22 529 10 2
22 -2 27 -10 5 -7 10 -123 11 -258 1 -135 4 -194 5 -132 l4 112 39 0 c22 0 40
5 40 10 0 6 -18 10 -40 10 -22 0 -40 4 -40 9 0 12 56 25 70 16 5 -3 10 1 10 9
0 12 -10 16 -40 16 -22 0 -40 5 -40 10 0 6 18 10 41 10 24 0 38 4 34 10 -3 6
-22 10 -41 10 l-34 0 2 94 c3 92 2 95 -26 125 -28 29 -35 31 -98 31 l-68 0 0
60 c0 33 3 61 8 61 4 1 39 3 77 5 113 5 176 -21 212 -89 22 -43 34 -172 33
-337 -1 -83 5 -175 15 -240 18 -108 65 -268 91 -308 12 -18 13 -26 3 -38 -10
-12 -9 -13 6 -7 14 5 17 3 12 -10 -3 -9 10 -47 32 -89 30 -57 37 -78 30 -96
-18 -48 68 -159 117 -149 16 3 37 -9 74 -41 l51 -45 -20 -21 c-28 -30 -27 -40
12 -72 l32 -27 3 -126 c4 -138 13 -161 62 -161 30 0 50 16 50 41 0 14 6 15 44
6 l45 -10 -20 -39 c-16 -31 -25 -38 -49 -38 -21 0 -51 -16 -98 -51 -79 -61
-92 -76 -92 -105 0 -14 -30 -48 -90 -103 l-90 -82 -45 32 c-38 28 -53 32 -103
32 -109 0 -210 -75 -231 -171 -32 -151 118 -284 257 -227 63 27 99 75 116 158
6 26 9 27 70 27 81 0 96 15 96 93 l0 57 -59 0 -59 0 75 72 c54 53 77 69 81 58
2 -8 24 -34 48 -57 32 -31 44 -51 44 -72 0 -32 48 -81 79 -81 19 0 62 27 74
48 7 10 13 5 25 -20 11 -20 26 -34 40 -36 21 -3 22 -7 22 -118 0 -63 -4 -114
-9 -114 -16 0 -42 -68 -35 -95 15 -62 104 -86 149 -40 29 28 34 88 10 119 -11
15 -15 49 -15 133 l0 113 31 0 c23 0 41 9 65 35 18 19 35 35 38 35 2 0 6 -70
8 -156 3 -142 5 -157 23 -170 11 -8 29 -13 40 -12 23 3 50 52 38 71 -5 8 -9 2
-13 -18 -6 -33 -32 -44 -55 -25 -12 10 -15 44 -15 166 l0 154 39 0 39 0 3 -84
c4 -74 7 -88 29 -111 38 -41 73 -55 135 -55 l55 0 0 -66 c0 -64 2 -68 37 -101
46 -44 70 -53 144 -53 71 0 113 16 154 59 25 27 30 41 33 100 4 66 5 69 38 85
48 22 74 69 74 134 0 86 20 64 33 -38 1 -9 13 -15 27 -15 24 0 25 3 28 68 3
59 5 67 22 67 18 0 20 -8 21 -102 1 -57 0 -107 -1 -113 -13 -44 -11 -78 5 -95
23 -26 70 -25 95 0 18 18 20 33 20 166 l0 145 33 -3 c26 -2 33 -8 35 -29 2
-15 20 -45 41 -68 34 -36 43 -41 83 -41 91 0 210 83 240 167 11 30 28 45 28
25 0 -4 13 -15 29 -25 22 -13 52 -17 124 -17 87 0 98 2 125 25 35 30 45 21 32
-26 -9 -30 -9 -32 6 -17 14 14 17 48 21 205 2 103 6 194 9 201 3 10 7 10 24 0
25 -16 54 -1 58 31 5 33 -24 36 -67 7 l-39 -27 6 -128 c5 -146 -4 -187 -49
-226 -28 -23 -38 -25 -131 -25 -97 0 -100 1 -129 30 -29 29 -30 31 -27 122 l3
93 87 5 88 5 81 80 c44 44 87 92 95 107 11 22 14 90 14 352 0 178 3 332 6 340
4 9 37 34 75 56 59 35 70 46 80 80 l12 40 18 -30 c19 -30 57 -47 84 -36 9 3
15 0 15 -8 0 -31 -13 -46 -40 -46 -39 0 -92 -39 -114 -84 -16 -32 -17 -44 -7
-75 6 -20 22 -48 36 -61 30 -28 33 -18 5 17 -24 31 -25 41 -3 45 12 2 18 15
20 42 3 50 38 87 84 91 57 5 109 -34 109 -79 0 -11 -10 -16 -32 -16 -26 0 -37
6 -50 30 -20 35 -49 39 -78 10 -27 -27 -26 -65 2 -84 29 -21 45 -20 63 2 11
13 26 16 55 14 22 -2 40 -8 40 -12 0 -4 -16 -22 -35 -39 -35 -30 -45 -51 -25
-51 6 0 26 15 45 33 66 60 53 154 -26 200 -30 17 -37 27 -33 43 7 27 -19 54
-52 54 -17 0 -27 8 -34 26 -15 37 -12 130 4 169 l14 33 81 4 80 3 3 -69 c3
-66 5 -70 33 -86 48 -26 55 -51 55 -202 l0 -137 -27 -18 c-16 -11 -47 -27 -70
-38 -28 -12 -43 -24 -43 -36 0 -17 -8 -18 -77 -16 l-78 2 -3 -61 c-3 -59 -5
-63 -50 -106 l-48 -45 3 -439 c2 -274 7 -440 13 -442 6 -2 10 119 10 337 0
381 1 384 68 454 48 50 198 159 236 172 17 6 45 29 63 53 l33 44 0 223 c0 247
1 243 -67 272 l-33 13 0 74 c0 98 12 110 121 112 57 1 79 -2 79 -11 0 -25 -36
-45 -82 -45 -70 0 -78 -6 -78 -55 0 -47 1 -48 72 -61 21 -3 43 -13 50 -22 17
-20 25 -450 9 -502 -13 -45 -83 -114 -218 -215 -162 -121 -153 -92 -153 -515
0 -297 -2 -349 -15 -360 -8 -7 -15 -23 -15 -36 0 -21 -5 -24 -36 -24 -31 0
-35 3 -29 20 4 11 2 20 -4 20 -6 0 -11 -11 -11 -25 0 -22 4 -25 35 -25 l35 0
0 -71 c0 -67 -1 -70 -22 -67 -20 3 -23 10 -26 55 -4 69 -22 69 -22 0 0 -76 41
-109 103 -83 55 22 61 37 61 152 1 57 -2 104 -6 104 -4 0 -9 111 -11 248 l-3
247 -1 -255 c-1 -170 -5 -256 -12 -258 -7 -2 -11 -36 -11 -83 0 -46 -4 -79
-10 -79 -13 0 -13 143 0 156 5 5 10 154 12 354 4 418 -5 388 149 503 57 43
134 108 172 144 l67 66 0 262 c0 260 0 262 -23 283 -13 12 -35 22 -49 22 -15
0 -39 5 -53 10 -21 8 -26 16 -23 38 3 26 6 27 62 30 33 2 68 10 80 18 11 7 32
14 47 14 15 0 32 7 39 15 7 8 28 15 47 15 71 0 112 41 113 114 0 42 -5 53 -35
83 -33 33 -39 35 -80 31 -40 -5 -50 -2 -97 33 -48 36 -56 39 -120 39 -88 0
-89 -18 -1 -22 60 -3 69 -6 80 -28 18 -37 2 -45 -80 -41 -58 2 -77 8 -100 27
-16 13 -39 24 -53 24 -14 0 -24 6 -24 14 0 33 -31 48 -94 44 l-60 -3 -12 43
-13 42 119 0 119 0 58 49 c32 26 87 75 123 108 l65 60 3 291 c3 336 4 333 -81
382 -28 16 -56 31 -62 33 -5 2 7 23 28 46 l39 43 -4 137 c-3 128 -5 139 -32
189 -16 28 -44 64 -63 78 -71 54 -71 54 -501 54 l-398 0 -34 -30 c-32 -27 -41
-29 -116 -30 -81 0 -82 0 -108 34 -82 108 -215 124 -306 37 -20 -20 -39 -42
-41 -49 -6 -19 -59 2 -59 23 0 9 -11 27 -25 41 -14 14 -25 32 -25 40 0 25 -65
83 -99 90 -17 4 -31 10 -31 14 0 5 -18 31 -40 59 l-40 51 -75 0 c-53 0 -78 -4
-89 -15z m202 -60 c12 -19 22 -37 22 -40 0 -3 -52 -5 -115 -5 -124 0 -126 1
-105 54 9 25 13 26 92 26 l83 0 23 -35z m117 -105 c18 -17 24 -31 21 -46 -4
-15 1 -24 19 -32 40 -19 53 -51 64 -173 12 -128 14 -523 2 -553 -7 -18 -23
-19 -302 -19 l-294 0 -9 24 c-11 33 11 116 27 100 8 -8 91 -11 269 -11 l259 0
8 23 c11 27 3 38 -10 14 -9 -15 -33 -17 -259 -17 -248 0 -249 0 -261 23 -15
26 -26 462 -14 552 5 41 14 65 33 86 46 50 88 59 264 57 151 -3 157 -4 183
-28z m437 -97 c42 -28 88 -111 88 -155 0 -91 -82 -179 -170 -180 -141 -2 -230
138 -171 268 44 97 164 129 253 67z m1176 -52 c44 -23 83 -63 108 -111 14 -28
18 -60 18 -160 1 -152 3 -149 -128 -257 -52 -43 -99 -88 -105 -101 -6 -13 -11
-49 -11 -81 0 -57 -1 -60 -35 -80 -79 -46 -80 -155 -3 -196 l38 -20 0 -111 c0
-81 4 -115 15 -130 13 -17 14 -6 15 108 l0 127 28 15 c43 22 64 52 69 99 4 36
1 48 -23 76 -15 18 -38 37 -51 42 -21 8 -23 14 -23 78 l0 69 57 51 c31 28 63
51 70 51 47 0 113 -24 139 -51 l29 -30 3 -269 c2 -212 0 -275 -11 -302 -14
-32 -193 -198 -229 -211 -9 -3 -65 -7 -124 -8 l-107 -2 -22 64 c-12 35 -32 88
-43 117 -18 43 -19 52 -7 52 19 0 19 11 0 36 -11 14 -17 16 -23 7 -5 -9 -19
10 -40 56 -28 60 -32 80 -32 151 0 83 0 83 40 126 29 31 40 52 40 75 0 24 10
40 47 73 28 26 44 47 39 54 -12 20 -25 13 -51 -28 -30 -48 -45 -51 -45 -9 0
37 47 89 82 89 16 0 50 26 107 84 80 81 84 86 85 131 2 94 -37 100 -561 92
-284 -5 -352 -4 -379 8 -19 8 -34 18 -35 22 0 4 -1 43 -2 86 l-2 77 342 0
c222 0 343 4 343 10 0 6 -94 10 -262 10 l-263 1 30 26 30 26 403 -6 c370 -6
405 -8 440 -26z m-2118 -272 c0 -263 -1 -271 -48 -322 -19 -20 -28 -24 -34
-15 -15 25 -8 50 22 75 l30 25 0 237 c0 131 3 241 7 244 20 20 23 -15 23 -244z
m-818 158 c42 -24 188 -176 188 -195 0 -4 -19 -19 -42 -34 l-42 -27 -111 107
c-60 60 -128 117 -150 127 -36 18 -62 20 -291 20 l-251 0 -36 -25 c-20 -14
-46 -39 -59 -55 l-23 -29 -3 -448 c-3 -438 -3 -448 -22 -448 -20 0 -20 9 -20
436 0 391 2 440 17 472 23 48 88 110 127 121 17 6 175 9 351 8 l320 -2 47 -28z
m-168 -30 c22 -10 90 -67 151 -127 104 -103 111 -112 107 -144 -3 -26 3 -41
27 -68 l30 -35 -140 -137 -140 -138 3 104 3 103 68 51 c110 83 112 83 148 46
17 -18 36 -32 41 -32 15 0 -261 292 -304 322 -52 36 -88 40 -314 36 l-191 -3
-36 -28 c-69 -53 -68 -40 -65 -507 3 -394 2 -420 -14 -420 -17 0 -18 27 -18
435 0 469 -1 463 53 513 50 47 85 52 327 49 189 -2 231 -5 264 -20z m-38 -57
c29 -11 152 -126 215 -202 l39 -46 -77 -48 c-43 -26 -91 -59 -106 -73 -28 -25
-28 -27 -26 -141 1 -102 -2 -121 -22 -163 -23 -47 -23 -49 -6 -79 10 -17 16
-32 14 -35 -8 -7 -62 18 -84 39 -22 20 -23 29 -23 163 0 172 1 170 -119 186
-71 8 -87 8 -107 -6 -21 -13 -24 -23 -24 -75 0 -49 -3 -61 -20 -70 -24 -13
-27 -40 -4 -40 46 0 83 41 84 92 0 54 20 68 95 68 35 0 66 -4 69 -9 3 -4 8
-68 11 -142 3 -74 8 -143 10 -155 3 -12 25 -32 56 -48 37 -21 49 -33 45 -45
-26 -79 -74 -201 -87 -221 -9 -14 -22 -50 -29 -80 -17 -82 -21 -89 -30 -65 -5
11 -9 38 -9 60 -2 62 -19 112 -54 152 -42 48 -82 63 -167 63 l-70 0 0 160 c0
100 4 160 10 160 6 0 10 7 10 14 0 8 16 27 35 42 44 33 45 67 3 72 -15 2 -36
-2 -48 -8 -19 -10 -20 -19 -20 -225 0 -143 -4 -215 -10 -215 -8 0 -10 83 -8
259 l3 260 29 30 c15 16 56 44 89 62 34 18 56 34 50 36 -7 3 -44 -14 -83 -37
-106 -62 -104 -58 -108 -357 -3 -212 -6 -253 -18 -253 -12 0 -14 61 -14 418 0
363 2 421 16 442 l16 25 -21 -24 c-21 -23 -21 -32 -21 -436 0 -227 -3 -421 -6
-429 -5 -13 -9 -14 -20 -5 -21 17 -20 855 1 883 40 53 54 56 292 56 127 0 233
-4 249 -10z m1817 -109 c51 -21 67 -37 52 -53 -3 -3 -47 5 -98 17 l-92 22 -3
62 -3 61 43 -43 c25 -24 68 -53 101 -66z m318 49 c48 -14 774 -13 800 1 29 15
77 1 96 -27 27 -42 5 -89 -73 -159 -57 -50 -72 -59 -100 -56 -45 3 -69 -5 -72
-26 -1 -10 -5 -66 -10 -125 -7 -102 -8 -108 -39 -140 -29 -30 -32 -39 -35
-107 l-3 -75 -37 60 -37 61 21 43 c18 36 21 59 20 137 -2 82 0 98 19 124 22
31 21 51 -1 24 -18 -22 -27 -19 -35 12 -15 61 -92 147 -160 179 -48 23 -60 24
-267 24 -139 0 -219 4 -223 10 -4 6 8 28 27 49 33 37 33 38 54 19 11 -10 36
-23 55 -28z m-1272 -6 c17 -14 31 -34 31 -44 0 -33 -16 -30 -29 6 -20 54 -93
63 -99 11 -3 -26 -25 -37 -37 -17 -9 15 13 50 38 60 38 15 64 11 96 -16z
m-389 -163 c0 -9 -93 -71 -107 -71 -6 0 -21 12 -33 27 -33 42 -24 81 28 120
l43 33 35 -51 c19 -28 34 -54 34 -58z m470 48 c0 -28 4 -58 9 -68 6 -10 7 -29
3 -42 -5 -21 -8 -18 -15 21 -16 87 -19 140 -8 140 7 0 11 -21 11 -51z m1537
27 c136 -70 195 -230 148 -403 l-18 -66 -24 29 c-50 60 -55 79 -38 129 18 54
9 109 -24 151 -11 14 -18 31 -14 38 3 6 3 8 -2 4 -5 -5 -24 4 -43 19 -76 58
-151 67 -230 27 -61 -30 -98 -72 -147 -165 -34 -66 -118 -169 -136 -169 -6 0
-44 20 -85 44 -41 24 -102 54 -135 66 l-59 22 0 94 c0 77 3 94 15 94 10 0 15
-10 15 -34 0 -64 15 -85 86 -116 36 -17 74 -30 84 -30 9 0 38 19 64 43 l46 43
0 70 c0 38 6 80 13 94 12 24 18 25 117 31 177 11 331 4 367 -15z m-692 -23
c28 -9 76 -29 108 -45 53 -26 57 -31 57 -63 0 -19 -2 -35 -5 -35 -3 0 -32 13
-63 29 -32 16 -93 39 -135 52 -77 22 -77 22 -77 56 0 34 1 34 33 28 17 -3 55
-13 82 -22z m592 -58 c27 -8 58 -25 69 -37 l19 -23 -21 18 c-26 22 -81 32
-128 23 -43 -8 -45 -20 -11 -86 14 -27 25 -54 25 -61 0 -11 -212 -262 -244
-288 -9 -8 -22 -24 -27 -35 -5 -12 55 46 134 128 l144 149 42 -17 c23 -9 60
-15 82 -14 35 3 40 6 45 35 3 18 4 49 2 68 -2 21 0 31 5 26 8 -8 6 -62 -5
-151 -3 -24 -11 -28 -91 -45 -33 -7 -297 -249 -297 -272 0 -27 43 -3 115 66
161 153 152 146 173 128 10 -9 24 -17 31 -17 22 0 8 -16 -104 -116 -60 -54
-135 -124 -165 -156 l-56 -57 -59 1 c-33 0 -84 -7 -114 -16 -77 -23 -107 -21
-127 9 -32 49 -29 93 12 194 36 87 47 101 146 202 81 84 116 128 148 189 46
89 97 146 144 159 45 13 57 13 113 -4z m-569 -41 c36 -15 81 -36 100 -47 l35
-21 -36 -33 c-40 -36 -34 -36 -128 5 -54 24 -56 26 -65 80 -8 52 0 53 94 16z
m602 -19 c33 -17 70 -61 70 -84 0 -10 -7 -4 -18 14 -24 39 -44 54 -89 71 -29
10 -32 13 -15 14 13 0 36 -7 52 -15z m442 -127 c-7 -7 -12 -8 -12 -2 0 6 3 14
7 17 3 4 9 5 12 2 2 -3 -1 -11 -7 -17z m-1917 -95 c-10 -7 -35 -16 -54 -19
-20 -3 -60 -20 -89 -37 -44 -27 -54 -38 -65 -77 -13 -41 -12 -48 5 -80 35 -64
56 -86 69 -73 9 9 6 20 -11 48 -45 72 0 50 54 -27 15 -21 18 -21 39 -8 105 67
250 116 357 122 34 1 66 8 72 15 14 18 128 17 153 0 11 -8 49 -24 84 -35 63
-21 148 -70 172 -98 10 -12 8 -19 -11 -39 -13 -14 -29 -25 -36 -25 -7 0 -43
14 -81 31 -248 112 -501 84 -716 -79 -38 -29 -81 -59 -97 -67 -16 -8 -32 -20
-36 -26 -5 -8 -1 -8 14 0 43 23 43 3 1 -59 -33 -49 -67 -111 -52 -95 20 22
104 145 111 164 10 29 115 107 197 146 93 45 181 65 290 65 184 0 395 -89 482
-203 16 -19 38 -41 51 -48 27 -15 102 -133 130 -204 26 -66 34 -116 41 -255
l6 -115 38 2 c20 1 37 0 37 -2 0 -3 -17 -15 -38 -29 -30 -18 -41 -35 -55 -77
-45 -143 -174 -295 -313 -366 -158 -83 -343 -108 -494 -68 -149 39 -310 153
-391 278 -20 31 -51 95 -68 142 -112 311 -9 623 261 787 165 101 363 122 545
58 80 -28 136 -64 213 -137 138 -129 209 -288 210 -465 0 -106 -15 -168 -65
-274 -95 -196 -282 -327 -490 -341 -103 -7 -159 14 -300 108 -112 75 -177 140
-230 230 -33 57 -70 158 -60 167 4 5 25 -42 25 -57 0 -5 8 -15 17 -22 15 -12
16 -12 8 6 -78 188 -23 441 125 578 77 71 184 124 265 132 l60 5 -72 -19
c-123 -34 -211 -89 -289 -182 -55 -66 -33 -56 37 16 106 111 249 173 369 162
63 -6 171 -46 213 -80 l29 -22 -22 -30 c-12 -17 -4 -11 18 12 l40 43 58 -63
c108 -115 158 -262 135 -396 -23 -131 -23 -130 -5 -86 24 63 34 200 19 270 -7
33 -13 56 -14 50 -1 -5 -18 19 -38 55 -72 129 -229 258 -334 275 -24 4 -16 -1
27 -18 66 -25 134 -64 134 -76 0 -19 -13 -17 -36 4 -26 24 -136 69 -197 80
-20 4 -43 16 -53 26 -58 64 -298 -37 -424 -179 -172 -194 -195 -487 -54 -701
50 -77 210 -233 267 -260 26 -13 88 -30 138 -39 75 -13 104 -14 169 -4 311 45
544 312 543 622 0 185 -59 326 -193 461 -99 100 -181 150 -295 179 -140 36
-317 20 -442 -41 -327 -158 -458 -523 -313 -872 58 -141 147 -244 271 -318
187 -112 408 -127 638 -44 38 14 80 25 95 25 17 0 48 19 91 55 42 36 72 54 86
52 12 -1 24 4 26 11 3 7 -1 10 -10 6 -16 -6 -33 11 -19 20 5 3 27 -8 51 -23
l43 -28 -67 -57 c-86 -73 -118 -89 -185 -92 -30 -2 -96 -16 -146 -33 -255 -86
-506 -49 -719 103 -27 20 -98 83 -156 141 -59 58 -110 105 -114 105 -3 0 -5
-10 -3 -22 2 -14 10 -23 21 -23 10 0 23 -9 29 -19 9 -15 7 -22 -8 -33 -27 -20
-32 -17 -59 37 -31 62 -32 90 0 120 l25 23 20 -46 c20 -45 36 -64 46 -54 3 3
-2 20 -12 38 -9 18 -28 65 -41 103 -32 92 -42 286 -20 388 12 57 12 69 1 79
-8 6 -14 15 -14 20 0 4 22 57 49 116 67 149 68 153 26 182 -63 42 -84 67 -78
90 7 29 14 27 42 -15 13 -19 33 -40 44 -46 17 -9 25 -5 52 28 l32 38 -38 54
c-37 53 -38 54 -23 94 8 22 14 52 14 67 0 21 10 33 54 59 30 17 65 32 79 32
34 0 87 20 88 33 0 7 3 6 6 -2 3 -8 -2 -20 -12 -28z m280 -25 c-60 -93 -71
-103 -127 -121 -30 -9 -61 -17 -70 -17 -12 0 -58 42 -58 54 0 5 112 54 143 61
17 5 27 3 27 -4 0 -12 -10 -17 -93 -46 -73 -26 -50 -28 29 -2 57 18 70 26 72
46 4 22 1 24 -33 18 -34 -6 -175 -65 -175 -74 0 -2 12 -20 26 -39 15 -19 22
-34 16 -34 -11 0 -82 76 -82 88 0 11 97 66 151 87 45 16 124 31 181 34 l27 1
-34 -52z m443 6 c40 -14 72 -29 72 -33 0 -3 -22 -30 -49 -60 -31 -36 -52 -52
-60 -46 -7 4 -26 28 -42 53 -16 25 -29 39 -29 31 0 -8 7 -25 16 -37 22 -31 11
-39 -15 -11 -20 21 -51 99 -51 127 0 20 66 10 158 -24z m-1024 16 c14 -5 26
-17 26 -25 0 -12 -4 -14 -19 -5 -31 16 -51 12 -63 -15 -16 -35 4 -58 38 -44
33 12 34 12 34 -10 0 -10 -11 -30 -25 -45 -28 -30 -50 -25 -79 16 -37 52 -9
113 61 137 1 1 13 -3 27 -9z m-451 -23 c-4 -7 -33 -52 -65 -102 -32 -49 -58
-96 -58 -104 0 -13 -3 -13 -16 1 -16 15 -15 20 9 60 44 76 117 169 127 163 6
-4 7 -12 3 -18z m1301 -46 c9 -7 16 -24 16 -38 0 -20 -3 -22 -18 -14 -10 5
-52 13 -93 17 -60 5 -77 3 -87 -9 -7 -8 -21 -13 -32 -10 -24 6 -24 6 -4 45
l16 30 93 -4 c57 -2 99 -9 109 -17z m-788 -67 c-4 -14 -21 -41 -40 -62 -113
-128 -245 -379 -230 -439 6 -24 5 -26 -17 -19 -13 3 -36 9 -51 12 -19 4 -28
13 -28 25 0 37 -20 18 -35 -35 l-16 -53 -50 10 -50 10 7 41 c15 91 115 343
143 360 9 6 101 -52 101 -64 0 -3 -23 -50 -50 -103 -28 -54 -48 -102 -45 -107
3 -4 18 -13 34 -18 l28 -10 48 111 c51 116 113 216 190 306 25 30 49 68 53 85
l7 31 3 -29 c2 -15 1 -39 -2 -52z m1087 65 c12 -6 37 -22 54 -36 l33 -24 -36
-54 c-20 -30 -45 -57 -56 -61 -26 -8 -133 62 -121 79 40 54 86 107 94 107 6 0
20 -5 32 -11z m1310 -23 c33 -31 43 -68 27 -107 -34 -82 -142 -78 -170 6 -29
89 76 163 143 101z m-489 -93 c116 -181 219 -438 251 -625 l6 -38 -159 0
c-194 0 -191 -1 -222 120 -21 80 -94 245 -157 353 l-28 49 90 85 c90 86 139
123 163 123 7 0 32 -30 56 -67z m-1814 28 c0 -6 -10 -17 -22 -25 -30 -21 -52
-2 -24 20 23 16 46 19 46 5z m-578 -35 c10 -7 15 -16 11 -20 -4 -4 -1 -5 7 -2
8 4 27 -4 43 -16 l27 -23 -48 -95 c-57 -113 -87 -203 -108 -325 -21 -121 -21
-120 -85 -120 l-54 0 3 60 c4 88 20 168 54 275 33 104 112 280 125 280 4 0 16
-7 25 -14z m432 -209 c39 -33 39 -35 27 -65 -8 -18 -17 -32 -21 -32 -4 0 -29
17 -56 37 -27 20 -50 37 -52 38 -2 2 5 19 14 38 19 41 23 40 88 -16z m1704
-90 c100 -182 132 -300 132 -492 0 -75 -5 -145 -10 -156 -9 -15 -22 -19 -71
-19 l-60 0 -15 -37 c-54 -133 -115 -216 -152 -206 -33 8 -55 39 -50 70 3 15
15 64 27 108 13 44 26 91 30 105 5 21 13 26 49 28 l42 3 2 82 c5 247 -4 302
-72 437 l-30 60 -55 0 c-38 0 -64 6 -87 21 -29 18 -30 20 -8 15 88 -19 107
-18 127 3 24 26 27 23 76 -75 67 -134 79 -184 84 -349 3 -82 1 -166 -4 -185
-9 -33 -12 -35 -54 -38 l-45 -3 -13 -52 c-8 -29 -24 -78 -38 -111 -23 -55 -23
-59 -7 -77 25 -27 48 -23 80 14 27 31 78 135 105 210 12 35 15 37 55 37 68 0
75 13 72 144 -3 104 -4 111 -23 109 -11 -2 -32 0 -47 3 -25 5 -28 10 -28 45 0
39 0 39 40 39 l40 0 -26 73 c-28 76 -99 222 -133 272 -26 37 -27 54 -2 31 10
-9 41 -58 69 -109z m-2925 44 c4 -4 -13 -6 -40 -4 -41 4 -51 1 -70 -19 -13
-14 -23 -39 -25 -62 -2 -31 3 -43 25 -62 37 -31 81 -31 112 1 29 28 32 61 8
95 l-17 25 22 -19 c30 -26 29 -76 -3 -110 -33 -35 -92 -36 -132 -2 -51 44 -33
139 32 167 22 9 74 4 88 -10z m1217 -67 c0 -15 -64 -164 -71 -164 -11 0 -11 6
1 52 8 27 8 44 0 58 -13 24 -28 25 -52 4 -16 -15 -18 -15 -24 -1 -10 26 14 59
38 51 15 -4 19 -2 16 7 -3 8 -10 14 -16 14 -13 0 -15 11 -6 37 4 15 12 13 60
-19 30 -20 54 -37 54 -39z m-1230 27 c25 -48 1 -101 -45 -101 -30 0 -59 41
-50 69 15 50 75 69 95 32z m2593 -40 c14 -21 38 -67 52 -102 27 -67 64 -109
94 -109 36 0 41 -20 41 -167 0 -113 -3 -150 -17 -178 -22 -47 -43 -42 -64 15
-16 43 -16 46 2 69 25 31 23 59 -9 156 -25 73 -30 81 -60 91 -26 8 -38 21 -57
61 -13 28 -39 77 -59 108 -46 72 -47 77 -11 86 54 12 62 9 88 -30z m-2007 -17
c19 -5 20 -8 7 -77 -7 -40 -12 -95 -13 -124 0 -49 -1 -52 -30 -58 -17 -4 -40
-16 -50 -28 -19 -20 -20 -20 -20 -1 0 27 29 200 42 251 11 44 20 49 64 37z
m-338 -51 c3 -10 -14 -13 -62 -13 -53 0 -66 3 -66 15 0 13 11 15 62 13 38 -2
63 -8 66 -15z m-98 -574 l0 -541 142 -137 141 -138 -6 -84 c-4 -46 -7 -110 -7
-141 l0 -58 -85 0 -85 0 0 65 c0 75 10 85 87 85 27 0 54 5 61 12 7 7 12 37 12
68 l0 55 -129 125 c-71 69 -135 138 -140 153 -15 38 -15 1077 -1 1077 7 0 10
-187 10 -541z m809 510 c33 -12 34 -13 25 -45 -5 -20 -9 -21 -47 -12 -51 11
-49 10 -41 42 7 29 16 31 63 15z m1852 -26 c6 -17 6 -30 0 -36 -7 -7 -14 -1
-21 17 -13 34 -13 46 0 46 6 0 15 -12 21 -27z m-1731 -21 l45 -18 1 -209 c1
-116 0 -218 -3 -228 -5 -21 -35 -36 -137 -71 -82 -29 -106 -28 -106 1 0 17 16
26 115 62 17 6 42 13 56 15 15 3 31 16 38 32 11 24 8 35 -19 91 -18 36 -34 62
-37 60 -2 -3 7 -28 21 -56 14 -28 26 -59 26 -69 0 -23 -24 -46 -42 -40 -17 6
-19 185 -2 283 18 105 18 104 -11 117 -29 13 -34 48 -7 47 9 0 37 -8 62 -17z
m-222 -12 c10 0 12 -8 7 -30 -7 -31 -5 -33 45 -44 14 -3 35 -15 48 -26 20 -19
22 -29 22 -144 0 -97 -3 -126 -15 -136 -13 -10 -15 6 -18 127 l-3 138 -2 -142
-2 -142 -27 -19 c-16 -11 -68 -40 -118 -65 -105 -52 -132 -77 -116 -104 10
-17 10 -16 11 3 0 25 29 46 102 74 69 26 78 25 78 -7 0 -26 -12 -34 -141 -101
-78 -41 -145 -70 -150 -65 -15 15 -69 195 -84 281 -8 46 -15 117 -15 156 0 68
2 74 33 104 31 30 36 31 126 34 105 3 106 4 116 79 l6 46 42 -8 c23 -4 48 -8
55 -9z m325 -105 c-17 -98 -14 -217 8 -323 12 -56 11 -63 -6 -82 -10 -11 -37
-25 -59 -31 -82 -21 -85 -59 -14 -166 57 -85 227 -263 251 -263 8 0 20 -7 28
-16 15 -18 148 -94 166 -94 7 0 20 25 29 55 16 50 35 68 48 47 7 -13 -39 -155
-52 -160 -19 -6 -162 74 -254 143 -97 73 -223 203 -275 283 -29 45 -33 58 -27
90 12 66 30 89 83 107 70 23 75 31 62 112 -21 135 -22 171 -11 272 12 112 18
137 31 124 4 -4 1 -49 -8 -98z m-199 75 c17 -17 -7 -27 -56 -22 -40 3 -48 7
-48 24 0 19 4 20 47 14 26 -3 52 -11 57 -16z m1866 -155 l0 -165 -30 0 -30 0
0 165 0 165 30 0 30 0 0 -165z m708 78 c5 -17 -26 -29 -40 -15 -6 6 -7 15 -3
22 9 14 37 9 43 -7z m-885 -53 c17 -72 19 -88 8 -109 -7 -11 -21 -21 -31 -21
-18 0 -20 7 -20 86 0 75 2 85 17 82 10 -2 21 -18 26 -38z m284 -142 c-2 -29
-3 -6 -3 52 0 58 1 81 3 53 2 -29 2 -77 0 -105z m83 120 c0 -18 -3 -63 -7
-100 -6 -67 -6 -68 -34 -68 l-29 0 0 100 0 100 35 0 c33 0 35 -2 35 -32z m620
-63 l0 -95 -192 0 c-178 0 -196 -2 -227 -21 -54 -33 -67 -56 -111 -194 -81
-253 -166 -380 -355 -531 -187 -151 -367 -248 -531 -289 -50 -12 -100 -28
-112 -34 -32 -17 -52 -63 -52 -121 0 -49 -12 -66 -24 -34 -23 60 14 176 62
192 16 5 22 11 15 15 -23 14 -82 -52 -99 -109 -20 -71 -8 -108 56 -168 77 -72
92 -68 218 59 56 58 110 105 118 105 18 0 54 -36 54 -53 0 -7 -72 -84 -159
-170 l-160 -156 -3 -126 c-4 -157 15 -165 23 -9 l5 109 2 -107 c2 -106 2 -108
-27 -140 l-29 -33 -257 0 -257 0 -25 29 -25 29 3 235 4 235 -27 20 c-22 17
-31 18 -59 8 -36 -12 -44 -9 -35 14 8 22 55 37 92 30 41 -7 104 -75 105 -113
1 -15 1 -108 1 -207 l1 -180 6 140 c7 161 5 156 120 270 102 100 97 125 -25
144 -261 40 -505 168 -730 384 -87 83 -184 201 -184 223 1 13 115 94 152 107
24 9 32 9 35 -1 3 -7 20 -31 40 -54 34 -41 37 -56 18 -101 -15 -37 185 -206
332 -280 28 -15 61 -41 74 -58 19 -27 26 -30 54 -26 18 3 66 1 106 -4 214 -28
420 -28 546 1 69 17 173 53 173 61 0 3 -28 -4 -62 -16 -93 -34 -237 -55 -370
-55 -127 0 -325 25 -345 44 -9 8 -10 22 -3 49 4 21 10 40 12 42 2 2 31 -3 63
-11 171 -45 491 -28 607 32 26 13 28 13 45 -12 16 -26 16 -27 -5 -45 -28 -22
-111 -47 -217 -65 l-80 -14 70 5 c72 5 196 35 250 61 45 21 88 94 80 137 -6
28 -3 35 17 44 20 9 26 7 44 -16 l22 -26 58 40 c86 59 249 219 300 297 l45 68
39 -20 39 -20 23 29 c14 16 30 43 38 60 12 31 11 34 -24 70 -20 20 -37 48 -37
61 -1 21 -2 22 -6 5 -3 -11 -13 -27 -23 -35 -29 -25 -92 -131 -86 -147 8 -19
-7 -45 -70 -123 -82 -101 -282 -268 -305 -254 -18 11 -8 34 27 61 105 81 177
149 229 220 32 43 74 96 93 117 19 22 53 77 74 124 l40 84 43 -5 c27 -4 48 -2
60 7 22 16 33 86 34 213 l1 92 285 1 285 0 0 -95z m45 -26 l0 -114 -225 -5
c-176 -4 -230 -8 -248 -20 -25 -17 -52 -68 -52 -98 0 -12 -5 -24 -11 -28 -9
-5 -10 4 -5 32 11 55 31 89 73 121 l36 28 199 0 198 0 0 96 c0 53 3 99 7 103
21 21 28 -8 28 -115z m308 85 c-40 -20 -57 -61 -50 -121 3 -28 1 -40 -4 -32
-5 8 -9 36 -9 62 0 40 5 53 29 78 16 16 38 29 48 29 12 0 7 -6 -14 -16z m86
-1 c5 -10 13 -17 18 -15 4 1 8 -2 8 -7 0 -5 3 -13 8 -17 18 -19 6 -76 -22
-105 -32 -31 -50 -35 -84 -17 -78 41 -52 157 35 159 28 0 30 2 13 9 -16 7 -17
9 -3 9 9 1 21 -7 27 -16z m-169 -88 c0 -73 -1 -75 -25 -75 -24 0 -25 2 -25 75
0 73 1 75 25 75 24 0 25 -2 25 -75z m-170 10 c0 -30 -4 -55 -10 -55 -11 0 -14
93 -3 103 12 12 13 8 13 -48z m43 0 c-7 -21 -13 -19 -13 6 0 11 4 18 10 14 5
-3 7 -12 3 -20z m-483 -240 c0 -40 -22 -48 -40 -14 -15 27 -6 49 20 49 16 0
20 -6 20 -35z m142 13 c9 -46 1 -134 -16 -169 -12 -26 -33 -45 -69 -64 -95
-51 -87 -15 -87 -388 0 -282 -2 -334 -16 -363 -9 -19 -52 -68 -96 -109 l-80
-75 -79 0 c-120 0 -119 1 -119 -136 0 -94 -3 -122 -20 -153 -27 -54 -94 -108
-158 -128 -52 -17 -55 -17 -89 2 -48 27 -43 40 15 41 51 1 143 32 149 51 2 6
-21 1 -54 -13 -75 -31 -98 -30 -134 3 -37 35 -37 48 0 61 43 15 117 87 141
136 11 23 20 58 20 78 0 50 24 124 54 162 24 33 26 33 87 29 50 -4 66 -2 88
14 52 38 55 36 17 -10 -44 -54 -64 -67 -100 -67 -14 0 -40 -13 -58 -29 -31
-28 -33 -33 -39 -121 -6 -89 -7 -93 -45 -132 -46 -46 -83 -68 -119 -68 -16 0
-25 -6 -25 -16 0 -11 5 -14 16 -10 9 3 28 9 42 13 35 8 110 70 128 105 8 16
14 56 14 97 0 64 3 73 30 105 21 24 43 36 70 41 31 5 50 18 85 57 25 28 45 54
45 59 0 5 18 29 41 54 30 33 40 51 38 72 -2 15 8 51 21 78 23 48 25 61 30 305
3 140 9 261 13 268 5 7 26 20 48 29 62 24 87 62 95 143 l7 70 52 0 c47 0 53
-3 57 -22z m-214 -25 c3 -20 -23 -51 -34 -40 -3 3 -3 20 1 37 7 34 28 36 33 3z
m-220 -84 c8 -13 6 -26 -10 -55 -11 -22 -23 -42 -27 -47 -11 -11 -101 25 -101
41 0 7 16 38 35 68 l35 55 29 -23 c16 -13 33 -30 39 -39z m-2119 -69 c28 -50
51 -94 51 -99 0 -5 -29 -27 -63 -50 -35 -23 -86 -62 -113 -87 l-49 -45 -26 30
c-33 40 -111 176 -113 198 -1 12 34 35 123 80 68 35 127 63 131 63 4 0 30 -41
59 -90z m1720 53 c22 -16 40 -32 40 -38 1 -5 -14 -28 -33 -50 l-33 -39 -42 27
c-22 15 -41 33 -41 40 0 17 48 87 60 87 5 0 28 -12 49 -27z m665 18 c12 -19
-29 -53 -58 -49 l-29 3 28 28 c28 28 49 34 59 18z m-148 -98 c-39 -77 -80
-136 -47 -67 11 23 32 68 47 100 14 33 28 54 31 47 2 -6 -12 -42 -31 -80z
m-1856 7 c0 -5 32 -44 71 -85 40 -42 69 -78 65 -82 -7 -8 -103 57 -136 92
l-23 24 -17 -21 c-9 -12 -22 -18 -28 -14 -22 13 -12 44 21 70 34 28 47 32 47
16z m1420 -1 c0 -16 -178 -196 -218 -221 -53 -33 -51 -10 3 35 28 22 84 75
125 118 75 78 90 89 90 68z m459 -217 l1 -83 -45 37 c-24 21 -47 44 -50 52 -3
8 14 45 37 82 l43 67 7 -36 c4 -20 7 -73 7 -119z m-1995 11 c117 -114 207
-183 294 -227 28 -14 52 -30 52 -34 0 -10 -39 -72 -45 -72 -3 0 -31 13 -63 29
-73 37 -181 116 -249 182 -43 42 -52 56 -46 73 14 41 5 68 -38 112 -24 24 -37
44 -30 44 8 0 64 -48 125 -107z m2401 47 c8 -24 -1 -40 -21 -40 -17 0 -28 24
-20 45 8 22 34 18 41 -5z m-2075 -65 c30 -19 60 -35 66 -35 7 0 15 -4 18 -9 6
-9 -22 -101 -31 -101 -8 0 -136 69 -157 85 -15 12 -17 17 -7 29 11 13 23 10
92 -26 43 -23 82 -39 85 -35 3 3 -11 13 -32 22 -22 9 -58 27 -82 41 -36 22
-41 28 -32 44 14 26 15 26 80 -15z m-789 -79 c4 -4 28 6 52 23 25 17 48 31 50
31 3 0 26 -26 53 -57 50 -59 49 -60 -23 -11 -50 33 -55 34 -78 8 -25 -27 -38
-25 -80 11 -23 21 -35 40 -35 57 0 25 1 25 26 -13 15 -22 30 -44 35 -49z
m2377 -3 c-27 -29 -39 -29 -67 1 l-23 25 23 29 24 30 32 -31 33 -31 -22 -23z
m-643 40 c14 -21 25 -41 25 -45 0 -3 -16 -16 -36 -29 -36 -22 -37 -22 -50 -4
-19 25 -18 33 5 40 11 3 25 13 32 21 8 10 0 8 -23 -5 -37 -22 -47 -19 -61 21
-4 12 3 19 31 26 20 6 40 10 44 11 4 1 19 -16 33 -36z m1354 -104 c-14 -35
-73 -89 -97 -89 -21 0 -162 -97 -216 -148 -21 -20 -47 -50 -57 -67 l-19 -30 0
76 0 75 46 35 c29 21 48 44 51 61 5 24 11 28 37 28 36 0 56 15 56 41 0 14 10
19 43 21 39 3 42 5 42 32 0 25 5 30 40 41 23 6 50 17 60 23 18 10 20 7 23 -30
2 -22 -2 -54 -9 -69z m-1492 72 c-3 -13 0 -18 8 -15 19 8 57 -57 43 -74 -12
-14 -101 -62 -115 -62 -5 0 -14 12 -20 28 -6 15 -18 43 -27 64 l-16 36 30 11
c28 9 31 8 47 -22 9 -18 18 -27 20 -20 2 7 -1 22 -7 34 -10 17 -9 23 1 30 24
15 42 10 36 -10z m-613 -33 c3 -7 7 -25 10 -40 8 -37 31 -47 138 -60 l91 -11
27 32 c22 28 36 34 105 47 44 7 86 14 93 14 16 0 57 -83 49 -103 -13 -35 -244
-64 -389 -48 -104 12 -185 29 -193 40 -3 6 12 71 30 129 3 6 11 12 20 12 9 0
17 -6 19 -12z m138 -21 c69 -10 77 -13 83 -35 3 -13 3 -27 0 -30 -3 -3 -44 -1
-91 5 -90 11 -104 19 -104 62 0 18 4 22 18 16 9 -3 52 -11 94 -18z m1191 -7
c14 -11 29 -29 32 -40 9 -29 27 -25 65 15 37 38 50 37 50 -3 0 -21 -14 -40
-60 -80 -33 -29 -60 -60 -60 -68 0 -8 -4 -14 -9 -14 -6 0 -55 -34 -110 -75
-75 -58 -109 -91 -141 -141 -47 -71 -59 -115 -60 -217 0 -79 -21 -134 -57
-148 -12 -4 -23 -11 -23 -14 0 -4 5 -3 10 0 17 10 11 -11 -7 -27 -46 -40 -80
-48 -200 -48 l-119 0 -52 53 -53 53 102 100 c146 141 169 167 169 187 0 24
-44 67 -69 67 -18 0 -169 -122 -186 -150 -10 -15 -21 -12 -54 16 -39 32 -39
57 -2 95 37 37 52 36 96 -2 41 -36 50 -17 10 21 -36 34 -78 31 -120 -10 -50
-49 -44 -94 17 -126 28 -14 29 -17 15 -31 -14 -15 -18 -15 -40 0 -35 23 -60
82 -53 122 8 43 57 95 88 95 46 0 144 31 233 74 76 36 233 137 441 284 55 38
108 43 147 12z m-2152 -27 c33 -24 52 -53 33 -53 -5 0 -70 48 -98 72 -25 21
30 5 65 -19z m2703 2 c6 -15 -21 -35 -48 -35 -19 0 -21 16 -3 35 16 19 43 19
51 0z m-2580 -100 c10 -15 15 -29 12 -32 -6 -7 -76 44 -76 56 0 30 38 16 64
-24z m2171 -22 c-6 -51 -31 -133 -41 -133 -2 0 -13 5 -26 11 -19 8 -23 18 -23
59 0 45 3 50 45 84 25 20 47 36 49 36 2 0 0 -26 -4 -57z m-2237 4 c10 -11 8
-19 -7 -38 -18 -22 -19 -22 -45 -6 -30 20 -32 33 -10 58 17 19 39 14 62 -14z
m277 -112 c41 -31 75 -59 75 -62 0 -3 -36 -43 -80 -89 -44 -46 -80 -89 -80
-95 0 -7 41 28 90 77 50 49 95 91 101 93 23 7 -18 -38 -107 -119 -67 -62 -95
-95 -102 -120 l-10 -35 -1 35 c-1 54 30 109 103 180 36 35 66 68 66 72 0 3
-47 41 -105 83 -58 42 -105 84 -105 92 0 10 13 4 40 -21 22 -19 73 -60 115
-91z m-204 53 c21 -18 51 -43 66 -55 l28 -21 -40 5 c-47 6 -80 -16 -90 -59
-14 -57 69 -91 102 -42 12 19 11 24 -6 45 -16 20 -23 22 -38 13 -10 -6 -19
-21 -21 -33 -4 -24 -22 -19 -22 6 0 26 31 53 60 53 58 0 85 -85 39 -122 -36
-30 -82 -23 -118 17 -26 30 -31 44 -32 88 0 29 -4 61 -8 72 -8 20 14 64 33 65
5 0 26 -15 47 -32z m2049 -27 c0 -13 -38 -48 -115 -105 -63 -48 -129 -107
-146 -131 -37 -51 -49 -53 -24 -4 36 69 85 123 171 190 94 72 114 81 114 50z
m-2870 -26 c0 -8 -9 -15 -20 -15 -20 0 -26 11 -13 23 12 13 33 7 33 -8z m2924
-51 c5 -12 -14 -37 -62 -85 -65 -65 -71 -69 -115 -69 -25 0 -48 4 -51 8 -11
19 164 162 198 162 13 0 27 -7 30 -16z m-2849 -44 c3 -5 -10 -19 -29 -31 -35
-20 -36 -23 -36 -77 1 -57 1 -57 49 -90 36 -25 53 -44 64 -75 8 -23 18 -50 22
-59 6 -16 1 -18 -33 -18 -43 0 -72 20 -72 48 0 9 -27 42 -60 73 -58 53 -60 57
-60 105 0 44 3 52 37 79 66 54 104 68 118 45z m1184 -41 c78 -35 80 -43 24
-96 l-34 -32 2 -150 c1 -108 -2 -155 -11 -165 -17 -21 -73 -30 -99 -17 -18 10
-21 21 -21 77 0 56 -4 68 -25 89 -45 46 -106 21 -104 -43 l1 -37 12 40 c9 33
17 41 39 43 46 6 57 -12 57 -94 l0 -74 -60 0 c-52 0 -64 4 -94 31 -48 41 -66
119 -42 171 15 31 264 288 280 288 3 0 37 -14 75 -31z m-439 -69 c0 -3 -6 -15
-14 -25 -12 -16 -18 -17 -39 -8 -27 13 -45 67 -33 100 6 14 13 10 46 -22 22
-22 40 -42 40 -45z m-761 -12 c1 -21 -3 -38 -8 -38 -13 0 -23 67 -15 93 7 21
7 21 15 2 4 -11 8 -37 8 -57z m3098 -35 c-3 -3 -11 -2 -17 2 -8 5 -7 11 2 22
12 15 13 14 16 -1 2 -10 1 -20 -1 -23z m-1789 -65 c7 -7 12 -23 12 -36 0 -23
-3 -24 -37 -18 -21 3 -46 6 -55 6 -11 0 -18 8 -18 20 0 34 71 55 98 28z m-520
-50 c-3 -30 -7 -33 -38 -36 -39 -4 -50 -15 -50 -54 0 -28 13 -37 25 -18 11 18
35 10 47 -15 28 -61 -43 -103 -89 -52 -26 27 -55 96 -47 109 8 12 136 97 147
98 5 0 7 -15 5 -32z m512 -119 l0 -60 -42 3 c-43 3 -43 3 -46 47 -5 62 1 71
48 71 l40 0 0 -61z m-478 -96 c25 -22 24 -79 -1 -93 -29 -15 -49 -12 -71 10
-54 54 15 135 72 83z m158 -34 l75 -7 -82 2 c-77 1 -85 3 -110 30 l-28 29 35
-24 c26 -18 55 -26 110 -30z m-613 -9 c42 -29 50 -31 122 -29 l76 2 -1 -41
c-1 -64 -13 -72 -114 -72 -83 0 -87 1 -98 25 -6 13 -20 30 -31 36 -18 12 -18
13 3 30 l21 18 -40 16 c-43 19 -100 15 -123 -9 -20 -20 -7 -39 18 -26 10 5 31
10 47 9 22 -1 19 -3 -18 -14 -26 -7 -52 -16 -58 -20 -7 -3 -18 -2 -25 4 -15
13 -29 0 -40 -36 -6 -17 -3 -23 8 -23 9 0 13 6 10 14 -5 14 13 33 22 23 9 -8
-19 -57 -33 -57 -18 0 -16 -17 7 -67 21 -48 30 -52 48 -22 7 12 16 18 19 15 3
-3 0 -13 -7 -21 -20 -24 3 -40 58 -40 62 0 107 32 123 86 16 52 44 55 34 3
-23 -125 -170 -170 -270 -83 -69 61 -72 164 -8 239 74 86 165 101 250 40z
m663 -40 c19 -6 9 -8 -38 -9 -40 -1 -61 3 -57 9 7 12 59 12 95 0z m1170 -75
l0 -85 -30 0 -30 0 0 85 0 85 30 0 30 0 0 -85z m17 -47 c-2 -24 -4 -5 -4 42 0
47 2 66 4 43 2 -24 2 -62 0 -85z m-1923 61 c32 -25 33 -39 2 -39 -27 0 -51
-24 -41 -40 4 -7 19 -9 36 -5 20 5 29 3 29 -6 0 -23 -33 -49 -62 -49 -40 0
-65 15 -83 50 -40 78 48 145 119 89z m736 -109 l0 -110 -30 0 -30 0 0 110 0
110 30 0 30 0 0 -110z m1184 -32 c20 -40 20 -54 0 -34 -20 20 -48 20 -65 0
-17 -20 0 -49 29 -48 12 0 19 -3 16 -8 -8 -12 -38 -10 -52 4 -15 15 -16 64 -2
73 6 3 10 15 10 26 0 33 46 25 64 -13z m-396 -79 c-8 -79 -26 -91 -137 -90
-79 1 -91 -1 -91 -16 0 -14 -4 -13 -24 6 -28 26 -39 70 -30 118 l6 33 140 0
141 0 -5 -51z m17 -68 c-22 -44 -56 -62 -124 -68 -68 -6 -111 2 -111 20 0 10
21 12 88 9 86 -4 87 -4 116 27 22 22 30 43 35 83 l6 53 3 -47 c2 -29 -3 -59
-13 -77z m375 95 c0 -18 -30 -30 -43 -17 -5 5 -6 14 -3 20 10 16 46 13 46 -3z
m-1256 -71 c-18 -19 -23 -31 -19 -48 9 -27 33 -47 59 -47 52 0 76 75 34 104
-18 13 -19 16 -6 16 19 0 48 -37 48 -61 0 -9 -9 -28 -21 -43 -43 -55 -138 -20
-125 47 7 35 23 57 42 57 8 0 3 -10 -12 -25z m62 -17 c15 -18 16 -20 2 -9 -20
15 -48 8 -48 -13 0 -7 7 -17 16 -20 9 -4 14 -9 11 -13 -10 -9 -37 17 -37 36 0
17 18 41 30 41 4 0 15 -10 26 -22z m-6 -29 c11 -19 10 -20 -10 -9 -11 6 -18
15 -15 21 9 13 13 11 25 -12z"/>
<path d="M2345 4493 c-32 -9 -65 -34 -81 -64 -16 -33 -20 -214 -4 -224 6 -4
10 30 10 95 l0 102 34 34 34 34 172 0 c105 0 179 -4 192 -11 16 -9 19 -8 16 3
-9 26 -72 37 -213 36 -77 0 -149 -3 -160 -5z"/>
<path d="M2486 4248 c-9 -12 -16 -33 -16 -45 0 -57 92 -87 124 -41 21 30 20
50 -5 82 -27 34 -81 36 -103 4z m82 -10 c17 -17 15 -53 -3 -68 -20 -17 -62 -5
-70 20 -14 44 41 80 73 48z"/>
<path d="M2517 4216 c-8 -20 20 -43 35 -28 14 14 3 42 -16 42 -7 0 -16 -6 -19
-14z"/>
<path d="M2770 4060 c0 -235 16 -220 -249 -220 -118 0 -202 4 -206 10 -9 15
29 20 175 23 l135 3 -151 2 c-158 2 -195 -6 -181 -42 6 -14 31 -16 222 -16
202 0 216 1 235 20 11 11 23 19 28 18 4 -2 9 76 12 173 4 134 2 179 -7 188
-10 9 -13 -23 -13 -159z"/>
<path d="M2258 3918 c4 -4 95 -8 202 -10 107 -2 203 -7 213 -12 12 -6 17 -4
17 7 0 9 -8 18 -17 21 -28 8 -423 2 -415 -6z"/>
<path d="M2995 4395 c-119 -42 -129 -212 -17 -278 72 -42 161 -14 200 65 27
53 23 99 -12 150 -44 65 -104 87 -171 63z m139 -55 c30 -34 36 -47 36 -86 0
-82 -47 -134 -122 -134 -68 0 -128 64 -128 136 0 39 29 93 59 109 14 8 47 14
72 15 42 0 50 -4 83 -40z"/>
<path d="M2997 4339 c-28 -17 -49 -68 -43 -104 16 -84 134 -107 172 -34 43 84
-50 184 -129 138z m78 -22 c16 -13 15 -14 -14 -9 -64 9 -99 -69 -46 -104 20
-13 31 -14 56 -5 27 9 30 9 19 -4 -7 -8 -25 -15 -41 -15 -66 0 -95 88 -43 129
31 25 44 26 69 8z m-6 -58 c-7 -14 -14 -18 -21 -11 -13 13 -2 32 18 32 12 0
13 -4 3 -21z"/>
<path d="M4195 4279 c39 -6 57 -16 83 -43 l32 -36 0 -124 0 -124 -111 -104
c-61 -57 -116 -112 -122 -123 -7 -11 -14 -63 -17 -115 l-5 -95 -49 -7 c-27 -4
-52 -10 -56 -15 -4 -4 -4 -55 0 -113 l7 -105 1 103 2 102 45 0 45 0 2 -82 c2
-46 3 -114 4 -153 3 -181 2 -175 37 -210 24 -24 48 -36 88 -44 73 -15 94 -7
188 76 135 117 121 75 121 377 0 251 -1 265 -21 290 -11 14 -25 26 -31 26 -6
0 1 -12 16 -26 l26 -27 0 -262 0 -263 -24 -15 c-13 -9 -59 -46 -102 -82 -70
-60 -81 -66 -112 -61 -52 8 -117 51 -136 90 -14 29 -16 76 -16 318 l0 283 122
116 122 117 0 118 c0 92 -4 126 -17 151 -24 44 -75 73 -128 72 l-44 -1 50 -9z"/>
<path d="M3405 4160 c8 -12 711 -12 740 0 12 5 -140 9 -363 9 -253 1 -381 -2
-377 -9z"/>
<path d="M4355 3651 c22 -4 46 -10 53 -14 9 -6 12 -66 12 -243 0 -154 3 -233
10 -229 6 4 10 93 10 235 0 225 0 229 -22 244 -12 9 -41 15 -63 15 l-40 -2 40
-6z"/>
<path d="M3994 3426 c-11 -29 0 -61 21 -61 15 0 21 8 23 29 5 38 -32 64 -44
32z"/>
<path d="M4252 3198 c-18 -18 -15 -75 4 -82 31 -12 54 -6 70 19 15 23 15 27 0
50 -18 27 -54 33 -74 13z m53 -38 c0 -29 -32 -41 -41 -16 -9 24 4 48 23 44 12
-2 18 -12 18 -28z"/>
<path d="M952 3868 c-21 -21 -14 -66 12 -83 18 -12 30 -13 50 -6 24 10 31 25
26 61 -4 34 -63 53 -88 28z m67 -22 c15 -18 -2 -56 -24 -56 -26 0 -46 29 -35
51 13 22 43 25 59 5z"/>
<path d="M1200 3849 c-57 -47 -60 -61 -60 -242 0 -131 3 -168 13 -165 7 3 13
26 15 56 3 46 6 52 25 53 17 1 18 2 5 6 -16 4 -18 18 -18 119 l0 114 36 40
c38 42 27 54 -16 19z"/>
<path d="M3772 4020 c2 -8 18 -22 36 -30 20 -9 34 -25 38 -40 3 -14 14 -43 25
-65 14 -31 19 -35 19 -17 0 18 6 22 30 22 17 0 30 -4 30 -10 0 -5 9 -10 20
-10 18 0 20 7 20 64 0 56 -3 67 -22 80 -28 20 -78 20 -104 1 -26 -19 -53 -19
-77 3 -16 13 -19 14 -15 2z m168 -40 c33 -33 19 -63 -26 -58 -32 3 -45 38 -24
64 16 19 26 18 50 -6z"/>
<path d="M1525 3960 c-11 -17 5 -49 27 -56 28 -9 52 21 37 47 -10 20 -54 26
-64 9z m52 -16 c3 -8 1 -20 -6 -27 -14 -14 -47 15 -37 32 10 16 36 13 43 -5z"/>
<path d="M3337 3623 c-30 -37 -94 -106 -142 -153 -117 -114 -90 -60 39 77 53
57 96 108 96 115 -1 7 -52 -40 -114 -104 -99 -101 -116 -124 -134 -177 -11
-34 -17 -61 -13 -61 15 0 298 295 315 328 29 57 11 47 -47 -25z"/>
<path d="M2410 3146 c-72 -19 -137 -56 -200 -113 -124 -113 -171 -210 -169
-356 1 -88 16 -158 37 -165 10 -3 9 5 -3 34 -37 89 -28 229 21 325 13 26 49
74 79 107 84 91 155 133 285 170 19 6 26 10 15 10 -11 0 -40 -5 -65 -12z"/>
<path d="M2425 3057 c-173 -57 -285 -220 -272 -395 18 -239 240 -406 465 -348
119 30 218 112 269 221 24 52 28 72 28 155 0 83 -4 103 -28 154 -43 92 -85
136 -171 180 -70 36 -86 40 -164 43 -53 2 -103 -2 -127 -10z m245 -37 c38 -20
41 -23 27 -37 -14 -14 -20 -14 -63 1 -104 35 -212 13 -293 -60 -54 -48 -62
-51 -81 -29 -11 13 -9 20 10 40 36 38 97 77 153 97 70 25 185 19 247 -12z
m125 -71 c62 -69 87 -136 87 -232 -1 -60 -7 -99 -22 -140 -28 -75 -109 -163
-187 -202 -52 -27 -68 -30 -153 -30 -84 0 -102 3 -152 28 -154 76 -230 250
-180 413 12 38 28 78 36 89 15 20 15 20 36 -1 22 -21 22 -22 4 -55 -29 -53
-26 -188 5 -257 81 -180 325 -217 471 -72 31 32 56 69 69 105 41 109 19 248
-49 324 -30 32 -32 33 -50 16 -11 -10 -20 -24 -20 -32 0 -7 -4 -13 -10 -13 -5
0 -10 5 -10 11 0 15 63 89 76 89 7 0 28 -19 49 -41z m-176 10 c17 -6 31 -17
31 -24 0 -10 -9 -10 -42 2 -50 17 -131 12 -176 -11 -16 -8 -44 -30 -62 -47
-18 -18 -35 -28 -40 -23 -17 17 50 79 107 99 46 17 139 19 182 4z m164 -124
c32 -63 29 -164 -6 -237 -34 -70 -94 -123 -163 -145 l-52 -16 -66 34 c-36 19
-66 38 -66 43 0 4 8 5 18 1 9 -3 30 -9 45 -12 16 -3 31 -12 34 -19 3 -8 19
-14 36 -14 77 0 205 107 192 160 -10 43 -13 184 -4 169 5 -8 9 -42 9 -76 0
-47 4 -63 14 -63 7 0 16 9 19 21 13 49 -30 198 -53 184 -5 -3 -12 0 -16 6 -4
8 -3 9 4 5 16 -10 15 6 0 24 -7 8 -2 6 11 -5 13 -11 32 -38 44 -60z m-155 28
c65 -48 90 -147 56 -220 -40 -84 -151 -118 -234 -72 -96 54 -116 173 -42 261
14 17 40 37 57 44 42 20 129 13 163 -13z m-314 -75 c-45 -128 18 -274 139
-324 78 -32 53 -45 -27 -14 -44 16 -103 79 -126 133 -28 64 -31 164 -7 220 22
52 40 39 21 -15z"/>
<path d="M2195 2730 c-4 -28 -5 -53 -2 -56 2 -3 7 19 11 47 4 28 5 53 3 56 -3
2 -8 -19 -12 -47z"/>
<path d="M2202 2635 c0 -16 2 -22 5 -12 2 9 2 23 0 30 -3 6 -5 -1 -5 -18z"/>
<path d="M2480 2859 c-40 -16 -80 -60 -90 -99 -36 -137 123 -244 230 -153 58
48 74 110 46 177 -27 64 -121 102 -186 75z m80 -32 c0 -9 -12 -14 -32 -15 -24
-1 -41 -10 -61 -33 -25 -27 -28 -38 -25 -80 2 -42 1 -47 -9 -32 -31 41 -5 130
45 157 35 19 82 21 82 3z"/>
<path d="M3044 2634 c-28 -211 -180 -388 -383 -448 -115 -34 -284 -14 -387 45
-91 52 -223 204 -186 217 14 4 16 22 2 22 -5 0 -14 -9 -20 -20 -14 -26 23 -82
101 -156 107 -100 206 -138 359 -137 151 0 265 48 371 154 93 93 167 269 157
372 -2 20 -7 2 -14 -49z"/>
<path d="M2108 2440 c-3 -8 14 -40 38 -71 134 -176 387 -229 592 -125 27 13
54 31 61 40 8 9 -12 3 -45 -14 -157 -81 -337 -80 -466 1 -45 29 -113 97 -154
154 -15 22 -22 26 -26 15z"/>
<path d="M2120 2183 c1 -11 79 -65 88 -61 5 2 -13 18 -40 36 -26 17 -48 29
-48 25z"/>
<path d="M2730 3601 c0 -5 16 -12 36 -15 40 -8 51 -25 34 -56 -10 -18 -9 -21
2 -18 21 7 22 65 1 76 -29 15 -73 23 -73 13z"/>
<path d="M2915 3500 c-23 -26 -10 -55 25 -55 30 0 49 29 34 53 -16 25 -38 26
-59 2z m35 -20 c0 -5 -5 -10 -11 -10 -5 0 -7 5 -4 10 3 6 8 10 11 10 2 0 4 -4
4 -10z"/>
<path d="M4211 3466 c-8 -10 -9 -16 -1 -21 13 -8 30 3 30 21 0 18 -14 18 -29
0z"/>
<path d="M3625 3338 c-51 -27 -58 -68 -21 -126 13 -21 43 -76 66 -123 53 -105
65 -119 106 -119 50 0 89 38 88 87 -1 41 -47 150 -94 224 -41 63 -95 85 -145
57z m93 -31 c23 -24 105 -204 116 -253 10 -46 -31 -77 -81 -60 -33 11 -166
271 -153 297 24 43 85 52 118 16z"/>
<path d="M1760 3235 c17 -23 38 -41 63 -56 31 -18 18 -2 -30 37 -27 21 -41 30
-33 19z"/>
<path d="M523 3134 c-21 -9 -16 -62 7 -74 33 -17 62 4 58 43 -2 26 -8 32 -28
34 -14 1 -31 -1 -37 -3z"/>
<path d="M1634 2694 c-15 -13 -16 -15 -2 -10 12 3 18 -2 21 -17 3 -15 5 -12 6
11 1 37 1 37 -25 16z"/>
<path d="M1243 2731 c-66 -41 -61 -141 8 -177 63 -32 141 20 143 96 1 35 -4
47 -32 71 -38 34 -74 37 -119 10z m97 -11 c49 -26 42 -118 -12 -146 -33 -17
-57 -12 -83 16 -18 20 -18 20 13 4 27 -13 36 -13 59 -2 30 14 38 36 29 74 -8
29 -49 33 -78 7 -24 -21 -23 -35 3 -51 27 -17 52 2 46 35 -5 28 -1 29 13 3 8
-15 6 -24 -10 -40 -26 -26 -41 -25 -73 4 -30 28 -27 57 11 86 27 22 54 25 82
10z"/>
<path d="M3740 2660 c0 -6 88 -10 245 -10 157 0 245 4 245 10 0 6 -88 10 -245
10 -157 0 -245 -4 -245 -10z"/>
<path d="M3706 2419 c-4 -23 -5 -44 -2 -46 2 -2 7 14 11 37 4 23 5 43 2 46 -2
3 -7 -14 -11 -37z"/>
<path d="M3647 2248 c-55 -118 -148 -238 -251 -325 -50 -42 -95 -80 -101 -85
-6 -5 -6 -8 0 -8 6 0 54 39 108 86 125 109 201 209 261 347 37 82 23 70 -17
-15z"/>
<path d="M3400 1983 c-60 -62 -177 -150 -275 -209 -104 -62 -130 -85 -37 -34
133 75 306 206 340 258 20 31 13 27 -28 -15z"/>
<path d="M1605 1840 c27 -27 51 -50 54 -50 3 0 -17 23 -44 50 -27 28 -51 50
-54 50 -3 0 17 -22 44 -50z"/>
<path d="M3178 1772 c-123 -81 -130 -87 -63 -51 59 31 155 97 155 105 0 6 3 8
-92 -54z"/>
<path d="M1720 1736 c8 -10 46 -41 84 -67 49 -35 78 -49 100 -48 l31 1 -33 8
c-32 7 -66 28 -152 91 -25 19 -38 25 -30 15z"/>
<path d="M2282 1561 c-8 -4 -12 -19 -10 -32 2 -19 9 -24 33 -24 33 0 45 25 25
50 -14 17 -29 19 -48 6z m38 -25 c0 -3 -4 -8 -10 -11 -5 -3 -10 -1 -10 4 0 6
5 11 10 11 6 0 10 -2 10 -4z"/>
<path d="M2455 1266 c-13 -19 -13 -28 -4 -50 22 -48 82 -42 95 10 14 54 -60
87 -91 40z m63 -30 c-2 -13 -10 -21 -23 -21 -23 0 -33 34 -14 45 20 13 40 -1
37 -24z"/>
<path d="M2482 1241 c4 -13 18 -16 19 -4 0 4 -5 9 -11 12 -7 2 -11 -2 -8 -8z"/>
<path d="M2364 1069 c-24 -25 -29 -39 -29 -78 0 -77 8 -81 154 -81 85 0 131 4
139 12 7 7 12 36 12 64 0 45 -4 57 -31 83 -30 30 -33 31 -123 31 -90 0 -93 -1
-122 -31z m195 -5 c16 -4 21 -8 14 -15 -12 -12 -133 -1 -133 11 0 18 44 19
119 4z m26 -109 c0 -18 -8 -20 -84 -23 -67 -2 -87 0 -102 14 -10 9 -16 21 -13
26 3 5 49 7 102 6 89 -3 97 -5 97 -23z"/>
<path d="M2350 843 c0 -8 281 -6 289 2 2 3 -62 5 -142 5 -81 0 -147 -3 -147
-7z"/>
<path d="M4616 2689 c-46 -36 -22 -119 34 -119 27 0 70 43 70 70 0 24 -42 70
-63 70 -8 0 -26 -9 -41 -21z"/>
<path d="M3330 950 c0 -5 7 -7 15 -4 8 4 15 8 15 10 0 2 -7 4 -15 4 -8 0 -15
-4 -15 -10z"/>
<path d="M1332 2243 c-12 -22 1 -58 22 -66 8 -3 25 2 37 12 17 14 20 24 15 44
-5 22 -12 27 -36 27 -18 0 -33 -7 -38 -17z m53 -23 c0 -22 -29 -18 -33 3 -3
14 1 18 15 15 10 -2 18 -10 18 -18z"/>
<path d="M1238 2214 c-16 -8 -28 -19 -28 -24 0 -17 103 -182 116 -187 7 -3 22
2 34 10 21 14 20 15 -31 116 -28 55 -54 101 -58 101 -3 -1 -18 -8 -33 -16z"/>
<path d="M3141 2269 c-13 -17 -21 -33 -18 -35 6 -6 47 45 47 57 0 14 -5 11
-29 -22z"/>
<path d="M4376 1926 c9 -24 -15 -84 -43 -106 -14 -11 -21 -20 -16 -20 12 0 47
38 62 67 14 27 14 60 1 68 -5 3 -7 0 -4 -9z"/>
<path d="M3455 1794 c-16 -8 -82 -52 -145 -97 l-115 -82 -3 -47 c-3 -40 1 -52
22 -73 14 -13 20 -27 15 -30 -5 -4 -9 -23 -9 -43 -1 -20 -6 -47 -13 -59 -15
-26 -128 -144 -153 -159 -11 -6 -23 -23 -28 -37 -20 -54 50 -105 100 -72 31
20 32 70 3 101 l-22 23 53 58 c57 62 80 106 80 150 0 20 8 33 29 44 15 9 94
67 174 130 126 97 147 117 147 140 0 33 -41 69 -79 69 -14 0 -39 -7 -56 -16z
m113 -51 c2 -14 -9 -31 -35 -52 l-37 -31 -23 22 c-13 12 -26 19 -29 15 -3 -3
3 -12 15 -19 12 -7 21 -16 21 -20 0 -13 -202 -168 -219 -168 -23 0 -41 20 -41
45 0 15 22 37 76 74 l76 54 24 -29 c13 -16 23 -24 24 -18 0 6 -7 17 -15 24 -8
7 -15 15 -15 19 0 6 80 71 114 93 8 5 7 11 -1 19 -10 10 -41 -6 -143 -74 -71
-48 -130 -85 -130 -82 0 7 201 148 239 167 33 17 36 17 65 0 17 -10 32 -27 34
-39z m-450 -565 c19 -19 14 -56 -9 -69 -18 -9 -25 -7 -42 9 -19 20 -19 22 -3
46 18 28 35 33 54 14z"/>
<path d="M3418 1663 c7 -3 16 -2 19 1 4 3 -2 6 -13 5 -11 0 -14 -3 -6 -6z"/>
<path d="M3070 1151 c0 -13 26 -32 33 -24 14 13 6 33 -13 33 -11 0 -20 -4 -20
-9z"/>
<path d="M1790 1252 c-85 -41 -114 -126 -62 -184 8 -10 20 -18 25 -18 6 0 2 9
-7 19 -10 11 -20 38 -23 60 -5 36 -2 44 30 76 63 63 138 39 185 -57 12 -24 21
-35 22 -25 0 26 -24 68 -58 100 -29 28 -84 43 -112 29z"/>
<path d="M1540 1101 c0 -6 4 -13 10 -16 6 -3 7 1 4 9 -7 18 -14 21 -14 7z"/>
<path d="M1592 1008 c-29 -29 3 -82 36 -61 20 12 29 43 13 43 -6 0 -11 -7 -11
-16 0 -9 -6 -14 -12 -11 -20 6 -16 42 5 41 9 -1 17 2 17 7 0 13 -34 11 -48 -3z"/>
<path d="M1874 4316 c-3 -8 -4 -23 -2 -33 5 -25 61 -25 66 0 7 37 -51 67 -64
33z m42 -31 c-3 -10 -11 -13 -18 -9 -9 6 -9 9 0 12 7 2 12 8 12 13 0 4 -8 6
-17 3 -15 -5 -16 -4 -3 5 19 13 35 -2 26 -24z"/>
<path d="M1576 4254 c-31 -31 -13 -74 31 -74 16 0 27 9 35 26 11 23 10 29 -11
45 -28 23 -35 23 -55 3z m49 -29 c0 -13 -8 -21 -22 -23 -17 -3 -23 2 -23 16 0
10 3 22 7 26 13 13 38 1 38 -19z"/>
<path d="M1595 4220 c3 -5 10 -10 16 -10 5 0 9 5 9 10 0 6 -7 10 -16 10 -8 0
-12 -4 -9 -10z"/>
<path d="M1735 4031 c-8 -15 3 -31 21 -31 9 0 14 7 12 17 -4 20 -24 28 -33 14z"/>
<path d="M1981 3761 c-9 -6 -11 -15 -6 -27 8 -18 8 -18 12 -1 6 23 23 22 23
-3 0 -31 -36 -25 -48 8 l-10 27 -1 -25 c-1 -32 16 -50 45 -50 33 0 49 25 36
55 -12 26 -27 31 -51 16z"/>
<path d="M922 2918 c-17 -17 -15 -33 3 -18 8 7 22 9 31 6 10 -4 14 -1 12 6 -6
18 -31 21 -46 6z"/>
<path d="M942 2354 l3 -267 84 -77 83 -77 -43 0 c-89 0 -132 -105 -70 -172 33
-35 73 -41 122 -15 35 18 63 75 54 111 -8 33 -59 96 -143 178 l-72 71 0 251
c0 165 -4 254 -10 258 -8 5 -10 -76 -8 -261z m172 -465 c57 -45 6 -147 -61
-123 -61 21 -69 103 -13 131 34 17 43 16 74 -8z"/>
<path d="M1049 1876 c-29 -14 -37 -57 -14 -80 36 -36 88 -6 83 47 -4 36 -34
51 -69 33z"/>
<path d="M4149 2440 c-13 -10 -19 -19 -13 -20 5 0 15 5 21 11 6 6 26 15 45 19
l33 8 -31 1 c-18 1 -42 -7 -55 -19z"/>
<path d="M1025 2295 c0 -128 0 -130 23 -133 24 -4 42 -36 42 -74 0 -36 59 -64
76 -36 5 7 2 9 -8 5 -9 -3 -26 1 -38 10 -18 13 -21 23 -18 59 2 33 0 43 -10
39 -6 -2 -23 0 -37 5 -24 9 -24 12 -28 132 l-3 123 1 -130z"/>
<path d="M4472 1768 c-25 -25 -2 -78 34 -78 23 0 54 38 47 57 -12 33 -57 45
-81 21z m58 -28 c0 -24 -26 -38 -42 -22 -16 16 -2 42 22 42 13 0 20 -7 20 -20z"/>
<path d="M4500 1740 c0 -5 5 -10 10 -10 6 0 10 5 10 10 0 6 -4 10 -10 10 -5 0
-10 -4 -10 -10z"/>
<path d="M1330 1600 c0 -5 6 -10 13 -10 23 0 48 -37 54 -78 5 -34 1 -44 -26
-73 l-30 -34 -1 26 c0 33 -9 42 -29 27 -12 -10 -12 -8 2 8 23 28 22 31 -15 54
-39 24 -79 25 -118 5 -44 -23 -60 -53 -60 -113 0 -46 4 -58 29 -83 23 -23 38
-29 71 -29 49 0 93 23 111 58 8 13 28 39 46 59 29 30 33 41 33 89 0 47 -4 59
-26 79 -28 26 -54 33 -54 15z m-64 -121 c12 -12 20 -27 18 -34 -3 -7 -1 -16 5
-20 6 -3 11 -1 11 6 0 7 3 10 6 6 11 -10 -17 -77 -36 -87 -57 -30 -124 10
-124 75 0 68 71 100 120 54z"/>
<path d="M1205 1410 c-28 -31 -8 -37 23 -7 19 20 22 27 11 27 -9 0 -24 -9 -34
-20z"/>
<path d="M4355 1549 c-11 -6 -31 -25 -44 -44 -20 -30 -22 -38 -11 -69 14 -45
44 -66 90 -66 46 0 76 21 90 64 25 77 -54 150 -125 115z m85 -29 c38 -38 14
-100 -39 -100 -34 0 -48 10 -60 42 -8 22 -6 31 10 52 25 31 61 34 89 6z m-88
-105 c31 -21 60 -19 94 7 l29 22 -20 -23 c-28 -33 -59 -42 -95 -30 -35 13 -50
36 -49 76 l1 28 9 -32 c5 -18 19 -39 31 -48z"/>
<path d="M4371 1496 c-16 -20 -3 -46 24 -46 13 0 26 7 29 16 7 19 -10 44 -29
44 -7 0 -18 -6 -24 -14z"/>
<path d="M4245 1477 c-3 -7 -4 -125 -3 -262 l3 -250 5 263 c3 144 4 262 2 262
-1 0 -5 -6 -7 -13z"/>
<path d="M4192 967 c-2 -388 -2 -388 -24 -410 -13 -12 -34 -29 -48 -38 -14 -9
-22 -19 -19 -23 10 -10 89 55 94 77 3 12 4 193 3 402 l-3 380 -3 -388z"/>
<path d="M3782 1250 c-53 -50 -54 -50 -121 -50 -76 0 -91 -9 -91 -58 0 -24 8
-42 29 -63 25 -25 37 -29 81 -29 44 0 56 4 81 29 32 32 36 62 15 103 -14 27
-13 29 20 55 34 26 62 63 47 63 -4 -1 -32 -23 -61 -50z m-18 -76 c25 -64 -9
-106 -84 -106 -66 0 -92 21 -88 71 l3 36 51 -3 c28 -1 62 2 75 7 33 13 36 13
43 -5z"/>
<path d="M974 1270 c-43 -17 -29 -90 17 -90 20 0 59 33 59 50 0 12 -37 50 -47
49 -5 0 -18 -4 -29 -9z m34 -35 c0 -33 -17 -43 -34 -21 -16 22 -8 46 16 46 12
0 18 -8 18 -25z"/>
<path d="M700 1224 c0 -10 -6 -14 -15 -10 -9 3 -15 0 -15 -9 0 -20 26 -19 34
0 3 8 11 15 18 15 10 0 10 -2 -1 -9 -8 -5 -9 -11 -3 -15 16 -10 25 13 12 29
-16 20 -30 19 -30 -1z"/>
<path d="M3782 858 c-18 -18 -15 -42 7 -62 28 -25 64 -17 76 17 8 24 6 31 -10
43 -23 17 -57 18 -73 2z m66 -30 c-3 -25 -34 -36 -50 -20 -17 17 -1 42 27 42
22 0 26 -4 23 -22z"/>
<path d="M3810 825 c0 -8 7 -15 15 -15 8 0 15 7 15 15 0 8 -7 15 -15 15 -8 0
-15 -7 -15 -15z"/>
<path d="M3634 843 l-112 -4 -76 -65 c-65 -55 -77 -70 -74 -92 3 -27 4 -27 90
-30 l87 -3 41 37 c22 20 38 39 35 42 -3 3 -18 -6 -33 -20 -42 -40 -66 -48
-136 -48 -54 0 -66 3 -66 16 0 13 11 15 65 12 36 -1 65 0 65 4 0 4 -29 8 -65
10 l-65 3 72 62 73 63 107 0 c60 0 110 4 113 10 3 6 3 9 -2 8 -4 -1 -58 -4
-119 -5z"/>
<path d="M3832 639 c2 -6 8 -10 13 -10 5 0 11 4 13 10 2 6 -4 11 -13 11 -9 0
-15 -5 -13 -11z"/>
</g>
</svg>